# xmcd
#
# Track frame offsets:
#	150
#	16983
#	34268
#	50273
#	67802
#	82648
#	98983
#	112853
#	128200
#	142332
#	159372
#	175016
#	192605
#
# Disc length: 2779 seconds
#
# Revision: 0
# Processed by: cddbd v1.5.2PL0 Copyright (c) Steve Scherf et al.
# Submitted via: dBpowerAMP V4.0
#
DISCID=a30ad90d
DTITLE=NICO BATISTA - VAQUEJADA É MEU ESPORTE
DYEAR=2007
DGENRE=FORRO
TTITLE0=BEBENDO PENSANDO NELA
TTITLE1=PASSAGENS PELO SERTAO
TTITLE2=VAMOS CANTAR VANERAO com DELMIRO B.
TTITLE3=FINAL ENTRE EU E VOCE
TTITLE4=VIVO POR VIVER
TTITLE5=DE IGUAL PRA IGUAL
TTITLE6=AMOR DEPERDIÇADO
TTITLE7=SE ELA VIR NAO QUERO MAIS
TTITLE8=AMOR DIFERENTE
TTITLE9=JURAS DE AMOR
TTITLE10=RECORDAÇOES A MONTEIRO
TTITLE11=VALORES DA TERRA
TTITLE12=PECADO CAPITAL
EXTD=
EXTT0=
EXTT1=
EXTT2=
EXTT3=
EXTT4=
EXTT5=
EXTT6=
EXTT7=
EXTT8=
EXTT9=
EXTT10=
EXTT11=
EXTT12=
PLAYORDER=
